HIERARCHY
ROOT Hips
{
  OFFSET 5.80788e-005 67.184 3.4734
  CHANNELS 6 Xposition Yposition Zposition Zrotation Xrotation Yrotation
  JOINT Chest
  {
    OFFSET 0 8.7983 -4.7612
    CHANNELS 6 Xposition Yposition Zposition Zrotation Xrotation Yrotation
    JOINT Chest2
    {
      OFFSET 0 8.0291 0.4195
      CHANNELS 6 Xposition Yposition Zposition Zrotation Xrotation Yrotation
      JOINT Chest3
      {
        OFFSET 0 9.9351 -2.2114
        CHANNELS 6 Xposition Yposition Zposition Zrotation Xrotation Yrotation
        JOINT Neck
        {
          OFFSET 0 22.3885 -0.4656
          CHANNELS 6 Xposition Yposition Zposition Zrotation Xrotation Yrotation
          JOINT Head
          {
            OFFSET -0.0001 12.643 3.4389
            CHANNELS 6 Xposition Yposition Zposition Zrotation Xrotation Yrotation
            End Site
            {
              OFFSET 0.0001 17.6655 0.5274
            }
          }
        }
        JOINT LeftCollar
        {
          OFFSET 2.2603 21.606 7.4023
          CHANNELS 6 Xposition Yposition Zposition Zrotation Xrotation Yrotation
          JOINT LeftShoulder
          {
            OFFSET 13.5163 -1.1332 -5.0146
            CHANNELS 6 Xposition Yposition Zposition Zrotation Xrotation Yrotation
            JOINT LeftElbow
            {
              OFFSET -0.0995 -28.05 -0.2431
              CHANNELS 6 Xposition Yposition Zposition Zrotation Xrotation Yrotation
              JOINT LeftWrist
              {
                OFFSET 0.0679 -23.3996 -0.1402
                CHANNELS 6 Xposition Yposition Zposition Zrotation Xrotation Yrotation
                JOINT LeftFinger1
                {
                  OFFSET 0.7932 -9.069 2.5189
                  CHANNELS 6 Xposition Yposition Zposition Zrotation Xrotation Yrotation
                  JOINT LeftFinger11
                  {
                    OFFSET -0.8272 -3.3923 0.5977
                    CHANNELS 6 Xposition Yposition Zposition Zrotation Xrotation Yrotation
                    JOINT LeftFinger12
                    {
                      OFFSET -0.5649 -2.3158 0.4082
                      CHANNELS 6 Xposition Yposition Zposition Zrotation Xrotation Yrotation
                      End Site
                      {
                        OFFSET -0.4919 -1.6479 0.2673
                      }
                    }
                  }
                }
                JOINT LeftFinger2
                {
                  OFFSET 0.9159 -9.2044 0.2193
                  CHANNELS 6 Xposition Yposition Zposition Zrotation Xrotation Yrotation
                  JOINT LeftFinger21
                  {
                    OFFSET 0.0117 -4.1944 -0.0248
                    CHANNELS 6 Xposition Yposition Zposition Zrotation Xrotation Yrotation
                    JOINT LeftFinger22
                    {
                      OFFSET 0.0071 -2.3249 -0.0142
                      CHANNELS 6 Xposition Yposition Zposition Zrotation Xrotation Yrotation
                      End Site
                      {
                        OFFSET -0.1475 -2.0882 0.0028
                      }
                    }
                  }
                }
                JOINT LeftFinger3
                {
                  OFFSET 0.6113 -8.7231 -2.0637
                  CHANNELS 6 Xposition Yposition Zposition Zrotation Xrotation Yrotation
                  JOINT LeftFinger31
                  {
                    OFFSET -0.1927 -3.8059 -0.2383
                    CHANNELS 6 Xposition Yposition Zposition Zrotation Xrotation Yrotation
                    JOINT LeftFinger32
                    {
                      OFFSET -0.1091 -2.1688 -0.1362
                      CHANNELS 6 Xposition Yposition Zposition Zrotation Xrotation Yrotation
                      End Site
                      {
                        OFFSET -0.2358 -1.9176 -0.0906
                      }
                    }
                  }
                }
                JOINT LeftFinger4
                {
                  OFFSET -0.6151 -8.0947 -3.5641
                  CHANNELS 6 Xposition Yposition Zposition Zrotation Xrotation Yrotation
                  JOINT LeftFinger41
                  {
                    OFFSET -0.4882 -2.341 -0.6462
                    CHANNELS 6 Xposition Yposition Zposition Zrotation Xrotation Yrotation
                    JOINT LeftFinger42
                    {
                      OFFSET -0.3575 -1.7167 -0.4742
                      CHANNELS 6 Xposition Yposition Zposition Zrotation Xrotation Yrotation
                      End Site
                      {
                        OFFSET -0.4187 -1.5237 -0.3496
                      }
                    }
                  }
                }
                JOINT LeftFinger0
                {
                  OFFSET -1.42 -1.8761 1.4223
                  CHANNELS 6 Xposition Yposition Zposition Zrotation Xrotation Yrotation
                  JOINT LeftFinger01
                  {
                    OFFSET -1.1471 -3.4929 2.6334
                    CHANNELS 6 Xposition Yposition Zposition Zrotation Xrotation Yrotation
                    JOINT LeftFinger02
                    {
                      OFFSET -0.823 -2.3 1.6571
                      CHANNELS 6 Xposition Yposition Zposition Zrotation Xrotation Yrotation
                      End Site
                      {
                        OFFSET -0.5822 -1.6914 1.1582
                      }
                    }
                  }
                }
              }
            }
          }
        }
        JOINT RightCollar
        {
          OFFSET -2.2603 21.606 7.4023
          CHANNELS 6 Xposition Yposition Zposition Zrotation Xrotation Yrotation
          JOINT RightShoulder
          {
            OFFSET -13.5187 -1.1334 -5.0155
            CHANNELS 6 Xposition Yposition Zposition Zrotation Xrotation Yrotation
            JOINT RightElbow
            {
              OFFSET 0.0994 -28.0499 -0.2431
              CHANNELS 6 Xposition Yposition Zposition Zrotation Xrotation Yrotation
              JOINT RightWrist
              {
                OFFSET -0.0679 -23.3996 -0.1402
                CHANNELS 6 Xposition Yposition Zposition Zrotation Xrotation Yrotation
                JOINT RightFinger1
                {
                  OFFSET -0.7932 -9.0691 2.5189
                  CHANNELS 6 Xposition Yposition Zposition Zrotation Xrotation Yrotation
                  JOINT RightFinger11
                  {
                    OFFSET 0.8272 -3.3923 0.5977
                    CHANNELS 6 Xposition Yposition Zposition Zrotation Xrotation Yrotation
                    JOINT RightFinger12
                    {
                      OFFSET 0.565 -2.3158 0.4082
                      CHANNELS 6 Xposition Yposition Zposition Zrotation Xrotation Yrotation
                      End Site
                      {
                        OFFSET 0.4919 -1.6479 0.2673
                      }
                    }
                  }
                }
                JOINT RightFinger2
                {
                  OFFSET -0.916 -9.2044 0.2193
                  CHANNELS 6 Xposition Yposition Zposition Zrotation Xrotation Yrotation
                  JOINT RightFinger21
                  {
                    OFFSET -0.0117 -4.1944 -0.0248
                    CHANNELS 6 Xposition Yposition Zposition Zrotation Xrotation Yrotation
                    JOINT RightFinger22
                    {
                      OFFSET -0.0071 -2.3249 -0.0142
                      CHANNELS 6 Xposition Yposition Zposition Zrotation Xrotation Yrotation
                      End Site
                      {
                        OFFSET 0.1475 -2.0882 0.0028
                      }
                    }
                  }
                }
                JOINT RightFinger3
                {
                  OFFSET -0.6113 -8.7231 -2.0637
                  CHANNELS 6 Xposition Yposition Zposition Zrotation Xrotation Yrotation
                  JOINT RightFinger31
                  {
                    OFFSET 0.1927 -3.8059 -0.2383
                    CHANNELS 6 Xposition Yposition Zposition Zrotation Xrotation Yrotation
                    JOINT RightFinger32
                    {
                      OFFSET 0.1091 -2.1688 -0.1362
                      CHANNELS 6 Xposition Yposition Zposition Zrotation Xrotation Yrotation
                      End Site
                      {
                        OFFSET 0.2358 -1.9176 -0.0906
                      }
                    }
                  }
                }
                JOINT RightFinger4
                {
                  OFFSET 0.6151 -8.0947 -3.564
                  CHANNELS 6 Xposition Yposition Zposition Zrotation Xrotation Yrotation
                  JOINT RightFinger41
                  {
                    OFFSET 0.4882 -2.341 -0.6462
                    CHANNELS 6 Xposition Yposition Zposition Zrotation Xrotation Yrotation
                    JOINT RightFinger42
                    {
                      OFFSET 0.3574 -1.7166 -0.4742
                      CHANNELS 6 Xposition Yposition Zposition Zrotation Xrotation Yrotation
                      End Site
                      {
                        OFFSET 0.4187 -1.5237 -0.3496
                      }
                    }
                  }
                }
                JOINT RightFinger0
                {
                  OFFSET 1.4199 -1.8761 1.4221
                  CHANNELS 6 Xposition Yposition Zposition Zrotation Xrotation Yrotation
                  JOINT RightFinger01
                  {
                    OFFSET 1.1472 -3.4929 2.6336
                    CHANNELS 6 Xposition Yposition Zposition Zrotation Xrotation Yrotation
                    JOINT RightFinger02
                    {
                      OFFSET 0.8229 -2.3 1.6571
                      CHANNELS 6 Xposition Yposition Zposition Zrotation Xrotation Yrotation
                      End Site
                      {
                        OFFSET 0.5822 -1.6914 1.1582
                      }
                    }
                  }
                }
              }
            }
          }
        }
      }
    }
  }
  JOINT RightHip
  {
    OFFSET -9.412 3.9771 -0.7758
    CHANNELS 6 Xposition Yposition Zposition Zrotation Xrotation Yrotation
    JOINT RightKnee
    {
      OFFSET -0.7531 -40.938 0
      CHANNELS 6 Xposition Yposition Zposition Zrotation Xrotation Yrotation
      JOINT RightAnkle
      {
        OFFSET 0 -40.1986 0
        CHANNELS 6 Xposition Yposition Zposition Zrotation Xrotation Yrotation
        JOINT RightToe
        {
          OFFSET 0 -4.4182 9.239
          CHANNELS 6 Xposition Yposition Zposition Zrotation Xrotation Yrotation
          End Site
          {
            OFFSET 0 0 6.1981
          }
        }
      }
    }
  }
  JOINT LeftHip
  {
    OFFSET 9.4119 3.9773 -0.7758
    CHANNELS 6 Xposition Yposition Zposition Zrotation Xrotation Yrotation
    JOINT LeftKnee
    {
      OFFSET 0.7532 -40.9383 0
      CHANNELS 6 Xposition Yposition Zposition Zrotation Xrotation Yrotation
      JOINT LeftAnkle
      {
        OFFSET 0 -40.1986 0
        CHANNELS 6 Xposition Yposition Zposition Zrotation Xrotation Yrotation
        JOINT LeftToe
        {
          OFFSET 0 -4.4182 9.239
          CHANNELS 6 Xposition Yposition Zposition Zrotation Xrotation Yrotation
          End Site
          {
            OFFSET 0 0 6.1981
          }
        }
      }
    }
  }
}
MOTION
Frames:	4
Frame Time:	0.0333333
5.80788e-005 67.184 3.4734 0 0 -0 0 8.7983 -4.7612 0 0 -0 0 8.0291 0.4195 0 0 -0 0 9.9351 -2.2114 0 0 -0 0 22.3885 -0.4656 0 0 -0 -0.0001 12.643 3.4389 0 0 -0 2.2603 21.606 7.4023 0 0 -12.5014 13.5163 -1.1332 -5.0146 88.1196 14.2451 10.6914 -0.0995 -28.05 -0.2431 -0.00160068 -0.00239207 0.000740045 0.0679 -23.3996 -0.1402 -8.4365e-005 7.00714e-005 -9.52055e-007 0.7932 -9.069 2.5189 9.93923e-017 -1.98785e-016 -1.59028e-015 -0.8272 -3.3923 0.5977 9.93923e-017 -5.96354e-016 -1.59028e-015 -0.5649 -2.3158 0.4082 -9.93923e-017 -5.96354e-016 -1.59028e-015 0.9159 -9.2044 0.2193 9.93923e-017 -1.98785e-016 -1.59028e-015 0.0117 -4.1944 -0.0248 -0.0128176 0.00232552 8.52707e-005 0.0071 -2.3249 -0.0142 9.93923e-017 5.96354e-016 -0 0.6113 -8.7231 -2.0637 9.93923e-017 -1.98785e-016 -1.59028e-015 -0.1927 -3.8059 -0.2383 -0.0160551 0.00299681 0.000857156 -0.1091 -2.1688 -0.1362 -2.48481e-016 0 3.18055e-015 -0.6151 -8.0947 -3.5641 9.93923e-017 -1.98785e-016 -1.59028e-015 -0.4882 -2.341 -0.6462 -0.0125865 0.0031206 0.00282719 -0.3575 -1.7167 -0.4742 0 1.98785e-016 -0 -1.42 -1.8761 1.4223 9.93923e-017 -1.98785e-016 -1.59028e-015 -1.1471 -3.4929 2.6334 9.93923e-017 -5.96354e-016 -1.59028e-015 -0.823 -2.3 1.6571 -9.93923e-017 -5.96354e-016 -1.59028e-015 -2.2603 21.606 7.4023 -0.865644 0.16582 7.03859 -13.5187 -1.1334 -5.0155 -88.0329 10.2057 -10.5567 0.0994 -28.0499 -0.2431 0.0015593 -0.00248883 -0.000788628 -0.0679 -23.3996 -0.1402 7.87605e-005 4.10553e-005 1.24965e-005 -0.7932 -9.0691 2.5189 -3.97569e-016 -7.95139e-016 3.18055e-015 0.8272 -3.3923 0.5977 -1.98785e-016 -3.97569e-016 3.18055e-015 0.565 -2.3158 0.4082 -1.98785e-016 0 3.18055e-015 -0.916 -9.2044 0.2193 -3.97569e-016 -7.95139e-016 3.18055e-015 -0.0117 -4.1944 -0.0248 0.0129473 0.00231697 -8.70038e-005 -0.0071 -2.3249 -0.0142 9.93923e-017 -7.95139e-016 1.59028e-015 -0.6113 -8.7231 -2.0637 -3.97569e-016 -7.95139e-016 3.18055e-015 0.1927 -3.8059 -0.2383 0.0163314 0.00303369 -0.000872333 0.1091 -2.1688 -0.1362 3.97569e-016 7.95139e-016 -3.18055e-015 0.6151 -8.0947 -3.564 -3.97569e-016 -7.95139e-016 3.18055e-015 0.4882 -2.341 -0.6462 0.0145763 0.00367772 -0.00326275 0.3574 -1.7166 -0.4742 9.93923e-017 -3.97569e-016 -0 1.4199 -1.8761 1.4221 -3.97569e-016 -7.95139e-016 3.18055e-015 1.1472 -3.4929 2.6336 -1.98785e-016 -3.97569e-016 3.18055e-015 0.8229 -2.3 1.6571 -1.98785e-016 0 3.18055e-015 -9.412 3.9771 -0.7758 3.42485 1.36937 -0.0640303 -0.7531 -40.938 0 0.000136572 0.69354 0.00145564 1.77636e-015 -40.1986 -1.11022e-016 -3.42573 -2.06297 -0.0607933 8.88178e-016 -4.4182 9.239 -3.19502e-024 0 -1.48106e-024 9.4119 3.9773 -0.7758 -3.42498 1.36123 0.0639712 0.7532 -40.9383 2.22045e-016 -6.769e-005 0.712612 -0.0012277 8.88179e-016 -40.1986 0 3.42582 -2.07388 0.0612819 -8.88178e-016 -4.4182 9.239 2.55305e-023 0 -2.31416e-026 
-8.425 35.0135 3.70391 -1.29354e-006 -43.7892 -8.66028e-007 0 8.7983 -4.7612 -2.62308 6.0418 -1.84797 0 8.0291 0.4195 -5.09097 12.1595 -3.44344 0 9.9351 -2.2114 -5.09098 12.1596 -3.44345 0 22.3885 -0.4656 2.13179 -8.16964 -7.42371 -0.0001 12.643 3.4389 4.41008 -0.637827 14.3811 2.2603 21.606 7.4023 -1.55265 1.98913 -30.0751 13.5163 -1.1332 -5.0146 66.8366 3.79098 52.6146 -0.0995 -28.05 -0.2431 -40.7455 -7.77552 -39.5244 0.0679 -23.3996 -0.1402 22.2264 -12.9522 1.99659 0.7932 -9.069 2.5189 4.35205e-006 -8.54551e-006 -6.51643e-006 -0.8272 -3.3923 0.5977 1.70002e-006 1.59778e-007 1.2176e-007 -0.5649 -2.3158 0.4082 7.24157e-031 1.11319e-014 -3.72721e-015 0.9159 -9.2044 0.2193 4.35205e-006 -8.54551e-006 -6.51643e-006 0.0117 -4.1944 -0.0248 -0.0127842 0.0023095 8.87613e-005 0.0071 -2.3249 -0.0142 -7.95139e-016 -7.95139e-016 -7.45443e-016 0.6113 -8.7231 -2.0637 4.35205e-006 -8.54551e-006 -6.51643e-006 -0.1927 -3.8059 -0.2383 -0.0160509 0.00300038 0.00086401 -0.1091 -2.1688 -0.1362 6.05034e-006 -8.53198e-006 -6.39424e-006 -0.6151 -8.0947 -3.5641 4.35205e-006 -8.54551e-006 -6.51643e-006 -0.4882 -2.341 -0.6462 -0.0125872 0.00312566 0.0028231 -0.3575 -1.7167 -0.4742 -9.05869e-007 2.28993e-006 4.20478e-006 -1.42 -1.8761 1.4223 4.35205e-006 -8.54551e-006 -6.51643e-006 -1.1471 -3.4929 2.6334 1.70002e-006 1.59778e-007 1.2176e-007 -0.823 -2.3 1.6571 7.24157e-031 1.11319e-014 -3.72721e-015 -2.2603 21.606 7.4023 14.0148 -17.8378 -8.04122 -13.5187 -1.1334 -5.0155 -74.9316 17.3783 14.1502 0.0994 -28.0499 -0.2431 -36.2114 -27.3033 -3.36711 -0.0679 -23.3996 -0.1402 -0.126034 -5.2443 5.16585 -0.7932 -9.0691 2.5189 -1.53425e-006 -7.89097e-007 -3.99618e-007 0.8272 -3.3923 0.5977 2.48481e-015 7.48617e-007 -0 0.565 -2.3158 0.4082 2.44373e-008 -1.02231e-007 -8.5088e-007 -0.916 -9.2044 0.2193 -1.53425e-006 -7.89097e-007 -3.99618e-007 -0.0117 -4.1944 -0.0248 0.0129186 0.00231327 -8.71695e-005 -0.0071 -2.3249 -0.0142 1.22284e-008 -2.13971e-007 -4.2544e-007 -0.6113 -8.7231 -2.0637 -1.53425e-006 -7.89097e-007 -3.99618e-007 0.1927 -3.8059 -0.2383 0.016336 0.00303634 -0.000873465 0.1091 -2.1688 -0.1362 1.07592e-014 6.41709e-007 1.59028e-015 0.6151 -8.0947 -3.564 -1.53425e-006 -7.89097e-007 -3.99618e-007 0.4882 -2.341 -0.6462 0.0145111 0.00366223 -0.00324775 0.3574 -1.7166 -0.4742 1.73937e-015 2.14909e-007 -1.59028e-015 1.4199 -1.8761 1.4221 -1.53425e-006 -7.89097e-007 -3.99618e-007 1.1472 -3.4929 2.6336 2.48481e-015 7.48617e-007 -0 0.8229 -2.3 1.6571 2.44373e-008 -1.02231e-007 -8.5088e-007 -9.412 3.9771 -0.7758 -28.4043 -17.1591 -27.9934 -0.7531 -40.938 0 -6.05265 55.3085 5.1906 0 -40.1986 7.10543e-015 -20.8755 6.77169 30.9127 0 -4.4182 9.239 1.61469e-006 -1.50938e-006 1.69813e-007 9.4119 3.9773 -0.7758 -5.3735 -30.7401 11.9607 0.7532 -40.9383 0 4.3303 40.8916 -5.18044 -2.66453e-015 -40.1986 -7.10543e-015 3.40759 7.55307 -5.9228 2.66454e-015 -4.4182 9.239 -2.04193e-006 -9.04848e-006 1.68479e-007 
-15.7829 8.29007 0.0591898 -9.44391e-006 -82.5084 -1.11403e-005 -1.77636e-015 8.7983 -4.7612 -4.82175 11.0665 -4.08178 -3.55271e-015 8.0291 0.4195 -9.07884 22.419 -7.39805 0 9.9351 -2.2114 -9.07882 22.4189 -7.39803 0 22.3885 -0.4656 2.21245 -15.0324 -14.349 -0.0001 12.643 3.4389 8.56292 -1.19113 27.1138 2.2603 21.606 7.4023 -1.95642 3.2708 -45.6564 13.5163 -1.1332 -5.0146 50.1302 -6.68214 89.1108 -0.0995 -28.05 -0.2431 -75.072 -17.6909 -70.3502 0.0679 -23.3996 -0.1402 42.7394 -23.7054 4.87275 0.7932 -9.069 2.5189 1.04509e-005 2.49996e-007 8.22364e-007 -0.8272 -3.3923 0.5977 -7.95139e-016 0 3.18055e-015 -0.5649 -2.3158 0.4082 1.59028e-015 0 3.18055e-015 0.9159 -9.2044 0.2193 1.04509e-005 2.49996e-007 8.22364e-007 0.0117 -4.1944 -0.0248 -0.0128539 0.00233538 8.82067e-005 0.0071 -2.3249 -0.0142 7.95139e-016 0 -3.18055e-015 0.6113 -8.7231 -2.0637 1.04509e-005 2.49996e-007 8.22364e-007 -0.1927 -3.8059 -0.2383 -0.0160997 0.00300568 0.000861357 -0.1091 -2.1688 -0.1362 -2.38542e-015 6.36111e-015 -3.18055e-015 -0.6151 -8.0947 -3.5641 1.04509e-005 2.49996e-007 8.22364e-007 -0.4882 -2.341 -0.6462 -0.0125698 0.00311679 0.00281912 -0.3575 -1.7167 -0.4742 -7.95139e-016 0 -1.59028e-015 -1.42 -1.8761 1.4223 1.04509e-005 2.49996e-007 8.22364e-007 -1.1471 -3.4929 2.6334 -7.95139e-016 0 3.18055e-015 -0.823 -2.3 1.6571 1.59028e-015 0 3.18055e-015 -2.2603 21.606 7.4023 18.5231 -30.6606 -24.8089 -13.5187 -1.1334 -5.0155 -63.0432 22.8488 36.2735 0.0994 -28.0499 -0.2431 -73.3066 -48.4552 -9.90936 -0.0679 -23.3996 -0.1402 -0.242054 -9.89915 9.748 -0.7932 -9.0691 2.5189 -1.98785e-016 -6.36111e-015 -0 0.8272 -3.3923 0.5977 -9.93923e-016 -6.36111e-015 -0 0.565 -2.3158 0.4082 -7.95139e-016 -4.77083e-015 7.95139e-016 -0.916 -9.2044 0.2193 -1.98785e-016 -6.36111e-015 -0 -0.0117 -4.1944 -0.0248 0.0129553 0.00231933 -8.7475e-005 -0.0071 -2.3249 -0.0142 9.93923e-016 -3.18055e-015 -1.59028e-015 -0.6113 -8.7231 -2.0637 -1.98785e-016 -6.36111e-015 -0 0.1927 -3.8059 -0.2383 0.0163419 0.00303681 -0.000873229 0.1091 -2.1688 -0.1362 3.97569e-016 7.86963e-009 -7.95139e-016 0.6151 -8.0947 -3.564 -1.98785e-016 -6.36111e-015 -0 0.4882 -2.341 -0.6462 0.0145741 0.00367572 -0.00326146 0.3574 -1.7166 -0.4742 5.96354e-016 0 -7.95139e-016 1.4199 -1.8761 1.4221 -1.98785e-016 -6.36111e-015 -0 1.1472 -3.4929 2.6336 -9.93923e-016 -6.36111e-015 -0 0.8229 -2.3 1.6571 -7.95139e-016 -4.77083e-015 7.95139e-016 -9.412 3.9771 -0.7758 -69.0037 -22.7725 -56.2287 -0.7531 -40.938 0 -149.258 76.7438 144.812 -8.88179e-016 -40.1986 7.10543e-015 -45.0749 7.69632 58.5864 7.10543e-015 -4.4182 9.239 -4.29793e-007 3.96205e-007 4.22063e-007 9.4119 3.9773 -0.7758 9.85675 -54.4546 34.2055 0.7532 -40.9383 1.77636e-015 29.7821 72.5276 -28.6567 -1.77636e-015 -40.1986 -7.10543e-015 5.4401 16.781 -11.4623 0 -4.4182 9.239 -1.59028e-015 -3.18055e-015 -0 
-18.4362 -1.57912 -2.27435 -180 -83.383 -180 3.55271e-015 8.7983 -4.7612 -5.555 12.8272 -5.06038 -3.55271e-015 8.0291 0.4195 -10.3077 26.0528 -9.15253 3.55271e-015 9.9351 -2.2114 -10.3076 26.0527 -9.15249 0 22.3885 -0.4656 1.80944 -17.2405 -17.0201 -0.0001 12.643 3.4389 10.1571 -1.80174 31.83 2.2603 21.606 7.4023 -1.89704 3.45019 -51.3495 13.5163 -1.1332 -5.0146 44.4813 -10.6096 102.363 -0.0995 -28.05 -0.2431 -86.8912 -22.3039 -80.8247 0.0679 -23.3996 -0.1402 50.521 -27.3781 6.19925 0.7932 -9.069 2.5189 -2.98177e-015 0 -0 -0.8272 -3.3923 0.5977 -2.68359e-015 0 -0 -0.5649 -2.3158 0.4082 -1.88845e-015 0 -0 0.9159 -9.2044 0.2193 -2.98177e-015 0 -0 0.0117 -4.1944 -0.0248 -0.0128702 0.00233221 8.38683e-005 0.0071 -2.3249 -0.0142 -3.08116e-015 2.42517e-014 -0 0.6113 -8.7231 -2.0637 -2.98177e-015 0 -0 -0.1927 -3.8059 -0.2383 -0.0160698 0.00299835 0.000859721 -0.1091 -2.1688 -0.1362 4.37326e-015 1.19271e-015 -0 -0.6151 -8.0947 -3.5641 -2.98177e-015 0 -0 -0.4882 -2.341 -0.6462 -0.0126059 0.00312511 0.00283321 -0.3575 -1.7167 -0.4742 -9.93923e-017 -1.19271e-015 -3.18055e-015 -1.42 -1.8761 1.4223 -2.98177e-015 0 -0 -1.1471 -3.4929 2.6334 -2.68359e-015 0 -0 -0.823 -2.3 1.6571 -1.88845e-015 0 -0 -2.2603 21.606 7.4023 18.0053 -33.9196 -32.1122 -13.5187 -1.1334 -5.0155 -58.6133 24.6487 44.387 0.0994 -28.0499 -0.2431 -88.859 -55.1218 -13.7612 -0.0679 -23.3996 -0.1402 -0.346843 -11.5785 11.357 -0.7932 -9.0691 2.5189 7.95139e-016 0 1.59028e-015 0.8272 -3.3923 0.5977 -0 0 1.59028e-015 0.565 -2.3158 0.4082 1.59028e-015 0 -0 -0.916 -9.2044 0.2193 7.95139e-016 0 1.59028e-015 -0.0117 -4.1944 -0.0248 0.0129482 0.00231586 -8.77566e-005 -0.0071 -2.3249 -0.0142 3.97569e-016 3.18055e-015 -3.18055e-015 -0.6113 -8.7231 -2.0637 7.95139e-016 0 1.59028e-015 0.1927 -3.8059 -0.2383 0.0163263 0.00303458 -0.000873982 0.1091 -2.1688 -0.1362 -7.95139e-016 -3.18055e-015 -3.18055e-015 0.6151 -8.0947 -3.564 7.95139e-016 0 1.59028e-015 0.4882 -2.341 -0.6462 0.0145745 0.00368404 -0.0032617 0.3574 -1.7166 -0.4742 -3.97569e-016 -3.18055e-015 -1.59028e-015 1.4199 -1.8761 1.4221 7.95139e-016 0 1.59028e-015 1.1472 -3.4929 2.6336 -0 0 1.59028e-015 0.8229 -2.3 1.6571 1.59028e-015 0 -0 -9.412 3.9771 -0.7758 -85.3423 -21.3346 -66.2805 -0.7531 -40.938 -8.88178e-016 -165.945 61.2269 159.652 -1.77636e-015 -40.1986 7.10543e-015 -54.6177 5.38609 68.3665 7.10543e-015 -4.4182 9.239 5.96354e-016 0 7.95139e-016 9.4119 3.9773 -0.7758 23.6442 -60.2699 49.5903 0.7532 -40.9383 0 73.8659 79.3742 -71.4397 0 -40.1986 0 6.72114 20.123 -13.6434 0 -4.4182 9.239 2.54109e-006 -1.82392e-006 -7.52402e-007 
